<svg width="60" height="60" viewBox="0 0 60 60" fill="none" xmlns="http://www.w3.org/2000/svg">
<path d="M41.7982 49.38L40.1982 36.57C39.9715 34.7556 39.0897 33.0865 37.7186 31.8765C36.3476 30.6666 34.5818 29.9993 32.7532 30H27.2432C25.4155 30.0005 23.6509 30.6684 22.2809 31.8782C20.9109 33.088 20.0298 34.7564 19.8032 36.57L18.2007 49.38C18.1128 50.0838 18.1755 50.7982 18.3849 51.4759C18.5942 52.1535 18.9454 52.7789 19.415 53.3104C19.8846 53.842 20.4618 54.2675 21.1085 54.5588C21.7552 54.8501 22.4564 55.0005 23.1657 55H36.8357C37.5447 55.0002 38.2457 54.8495 38.8921 54.558C39.5385 54.2666 40.1154 53.841 40.5848 53.3095C41.0541 52.778 41.405 52.1528 41.6142 51.4753C41.8234 50.7978 41.8861 50.0836 41.7982 49.38V49.38Z" stroke="#764295" stroke-width="3.33333" stroke-linecap="round" stroke-linejoin="round"/>
<path d="M30 20C34.1421 20 37.5 16.6421 37.5 12.5C37.5 8.35786 34.1421 5 30 5C25.8579 5 22.5 8.35786 22.5 12.5C22.5 16.6421 25.8579 20 30 20Z" stroke="#764295" stroke-width="3.33333"/>
<path d="M10 27.5C12.7614 27.5 15 25.2614 15 22.5C15 19.7386 12.7614 17.5 10 17.5C7.23858 17.5 5 19.7386 5 22.5C5 25.2614 7.23858 27.5 10 27.5Z" stroke="#764295" stroke-width="3.33333"/>
<path d="M50 27.5C52.7614 27.5 55 25.2614 55 22.5C55 19.7386 52.7614 17.5 50 17.5C47.2386 17.5 45 19.7386 45 22.5C45 25.2614 47.2386 27.5 50 27.5Z" stroke="#764295" stroke-width="3.33333"/>
<path d="M50.0005 35H50.7655C51.9491 34.9999 53.0943 35.4196 53.9975 36.1845C54.9007 36.9495 55.5033 38.01 55.698 39.1775L56.5305 44.1775C56.6499 44.8939 56.6119 45.6277 56.419 46.3278C56.2262 47.028 55.8831 47.6778 55.4136 48.2319C54.9442 48.7861 54.3597 49.2313 53.7007 49.5366C53.0418 49.842 52.3242 50.0001 51.598 50H42.5005M10.0005 35H9.23546C8.05186 34.9999 6.90659 35.4196 6.0034 36.1845C5.10021 36.9495 4.49766 38.01 4.30296 39.1775L3.47046 44.1775C3.35099 44.8939 3.38901 45.6277 3.58188 46.3278C3.77475 47.028 4.11784 47.6778 4.58728 48.2319C5.05672 48.7861 5.64124 49.2313 6.30019 49.5366C6.95914 49.842 7.6767 50.0001 8.40296 50H17.5005L10.0005 35Z" stroke="#764295" stroke-width="3.33333" stroke-linecap="round" stroke-linejoin="round"/>
</svg>
