<svg width="60" height="60" viewBox="0 0 60 60" fill="none" xmlns="http://www.w3.org/2000/svg">
<path d="M30.492 15.3059C30.4501 15.2147 30.3828 15.1374 30.2983 15.0832C30.2137 15.029 30.1154 15.0002 30.015 15.0002C29.9146 15.0002 29.8163 15.029 29.7317 15.0832C29.6472 15.1374 29.58 15.2147 29.538 15.3059L27.39 19.9649C27.3523 20.0461 27.2944 20.1162 27.222 20.1687C27.1495 20.2212 27.0649 20.2543 26.976 20.2649L21.879 20.8709C21.7796 20.883 21.6857 20.9232 21.6085 20.9868C21.5312 21.0504 21.4737 21.1348 21.4428 21.2301C21.4119 21.3253 21.4088 21.4274 21.434 21.5243C21.4592 21.6212 21.5116 21.7088 21.585 21.7769L25.353 25.2599C25.4192 25.321 25.4686 25.398 25.4965 25.4836C25.5243 25.5693 25.5297 25.6606 25.512 25.7489L24.51 30.7799C24.4904 30.8783 24.4993 30.9802 24.5358 31.0737C24.5723 31.1671 24.6349 31.2481 24.716 31.3072C24.7971 31.3662 24.8934 31.4007 24.9935 31.4067C25.0937 31.4127 25.1934 31.3899 25.281 31.3409L29.76 28.8359C29.838 28.7926 29.9258 28.7698 30.015 28.7698C30.1042 28.7698 30.192 28.7926 30.27 28.8359L34.749 31.3409C35.139 31.5599 35.607 31.2209 35.52 30.7799L34.521 25.7489C34.5033 25.6606 34.5087 25.5693 34.5365 25.4836C34.5644 25.398 34.6138 25.321 34.68 25.2599L38.445 21.7769C38.5184 21.7088 38.5708 21.6212 38.596 21.5243C38.6212 21.4274 38.6181 21.3253 38.5872 21.2301C38.5563 21.1348 38.4988 21.0504 38.4216 20.9868C38.3443 20.9232 38.2504 20.883 38.151 20.8709L33.057 20.2649C32.9676 20.2548 32.8823 20.2219 32.8093 20.1694C32.7363 20.1169 32.678 20.0465 32.64 19.9649L30.492 15.3059ZM48 23.9999C48.0028 26.5329 47.4696 29.0377 46.4355 31.3499C45.4014 33.6622 43.8898 35.7294 42 37.4159V52.4999C41.9999 52.7626 41.9309 53.0207 41.7997 53.2483C41.6686 53.4759 41.48 53.665 41.2528 53.7969C41.0256 53.9287 40.7677 53.9985 40.5051 53.9994C40.2424 54.0003 39.9841 53.9322 39.756 53.8019L30 48.2279L20.244 53.8019C20.0159 53.9322 19.7576 54.0003 19.4949 53.9994C19.2323 53.9985 18.9744 53.9287 18.7472 53.7969C18.52 53.665 18.3314 53.4759 18.2003 53.2483C18.0692 53.0207 18.0001 52.7626 18 52.4999V37.4159C15.762 35.4142 14.0604 32.8845 13.0499 30.0571C12.0395 27.2297 11.7523 24.1945 12.2147 21.2277C12.677 18.261 13.8742 15.4571 15.6971 13.0713C17.52 10.6854 19.9108 8.7935 22.6517 7.56776C25.3927 6.34201 28.3967 5.82138 31.3902 6.05328C34.3838 6.28519 37.2718 7.26225 39.7913 8.8955C42.3107 10.5288 44.3816 12.7663 45.8153 15.4044C47.2491 18.0425 48.0001 20.9974 48 23.9999ZM30 41.9999C26.8401 42.0045 23.7351 41.1734 21 39.5909V49.9169L29.256 45.1979C29.4826 45.0685 29.739 45.0004 30 45.0004C30.261 45.0004 30.5174 45.0685 30.744 45.1979L39 49.9199V39.5939C36.2647 41.1755 33.1597 42.0056 30 41.9999ZM30 38.9999C33.9783 38.9999 37.7936 37.4196 40.6066 34.6065C43.4197 31.7935 45 27.9782 45 23.9999C45 20.0217 43.4197 16.2064 40.6066 13.3933C37.7936 10.5803 33.9783 8.99992 30 8.99992C26.0218 8.99992 22.2064 10.5803 19.3934 13.3933C16.5804 16.2064 15 20.0217 15 23.9999C15 27.9782 16.5804 31.7935 19.3934 34.6065C22.2064 37.4196 26.0218 38.9999 30 38.9999Z" fill="#764295"/>
</svg>
