<svg width="60" height="60" viewBox="0 0 60 60" fill="none" xmlns="http://www.w3.org/2000/svg">
<path d="M29.7989 58.9164C29.766 58.9277 29.7351 58.9382 29.7062 58.948C29.6774 58.9382 29.6465 58.9277 29.6136 58.9164C29.3537 58.827 28.9689 58.6892 28.4796 58.4986C27.5008 58.1174 26.1056 57.5257 24.4564 56.689C21.1547 55.0141 16.8543 52.3672 12.8403 48.4784C4.97151 40.8552 -1.86605 28.4055 2.22229 8.8793C10.3324 9.85738 15.4283 9.43524 19.4576 7.9513C23.046 6.62973 25.7248 4.47683 28.8354 1.97683C29.1217 1.74677 29.4116 1.51376 29.7062 1.27819C30.0009 1.51376 30.2908 1.74677 30.5771 1.97683C33.6877 4.47683 36.3665 6.62973 39.9549 7.9513C43.9842 9.43524 49.0801 9.85738 57.1902 8.8793C61.2785 28.4055 54.441 40.8552 46.5722 48.4784C42.5582 52.3672 38.2578 55.0141 34.9561 56.689C33.3069 57.5257 31.9117 58.1174 30.9329 58.4986C30.4436 58.6892 30.0588 58.827 29.7989 58.9164ZM38.4731 41.9345L40.2515 42.7728L39.8817 40.8419L38.2312 32.2255L45.2341 26.1064L46.9034 24.6477L44.7051 24.3617L34.9327 23.0904L30.5824 15.1846L29.7062 13.5924L28.8301 15.1846L24.4798 23.0904L14.7074 24.3617L12.5098 24.6476L14.1782 26.1062L21.1814 32.2288L19.5345 40.8422L19.1653 42.7728L20.9432 41.9345L29.7063 37.8022L38.4731 41.9345Z" stroke="#764295" stroke-width="2"/>
</svg>
