<svg width="61" height="60" viewBox="0 0 61 60" fill="none" xmlns="http://www.w3.org/2000/svg">
<path d="M57.2306 30.0028L57.8768 29.5898C59.3462 28.6506 60.2883 27.1126 60.2883 25.3955C60.2883 22.6186 57.7924 20.2816 54.6252 20.2816H38.2039H37.3677L37.7634 19.545C38.4962 18.1811 39.2623 15.9039 39.0873 12.4681L39.0872 12.4671C38.7447 5.45286 34.4666 1.85951 32.0681 0.848748L57.2306 30.0028ZM57.2306 30.0028L57.8693 30.4275M57.2306 30.0028L57.8693 30.4275M57.8693 30.4275C59.3377 31.4039 60.2883 33.0114 60.289 34.8175L57.8693 30.4275ZM27.8774 0.791032L28.1685 1.19754C27.1093 1.95608 25.738 3.80362 26.104 8.37418L26.104 8.37433C26.3151 11.0212 24.7318 13.6949 22.8229 15.9274C20.8952 18.1818 18.54 20.0961 17.006 21.2408L16.207 21.8371V20.8401V18.9858C16.207 18.6921 15.967 18.4488 15.6626 18.4488H1.83335C1.52901 18.4488 1.289 18.6921 1.289 18.9858V56.4457C1.289 56.7389 1.52922 56.9827 1.83335 56.9827H15.6626C15.9668 56.9827 16.207 56.7389 16.207 56.4457V54.5534V53.8439L16.8751 54.0825C18.8389 54.7837 22.5798 56.0782 26.5093 57.2189C30.452 58.3635 34.5282 59.3361 37.1931 59.424L48.1677 59.5C48.1683 59.5 48.1689 59.5 48.1695 59.5C51.3098 59.4991 53.8231 57.07 53.8231 54.1365C53.8231 52.7835 53.2897 51.5461 52.4086 50.5949L51.7691 49.9047L52.699 49.761C55.409 49.3421 57.4512 47.1171 57.4512 44.476C57.4512 43.0673 56.8695 41.7825 55.9169 40.8189L55.3101 40.205L56.1445 39.9841C58.5473 39.3478 60.2889 37.2613 60.289 34.8177L27.8774 0.791032ZM27.8774 0.791032L28.1685 1.19754M27.8774 0.791032L28.1685 1.19754M48.1746 58.4252H48.1712L37.2208 58.3498L37.208 58.3497L37.208 58.3496C34.4107 58.2583 29.9701 57.1322 25.9028 55.9157C21.8157 54.6933 18.038 53.3582 16.5371 52.8161L16.207 52.6969V52.3458V23.403V23.139L16.425 22.9901C17.5431 22.2263 20.3895 20.1725 22.883 17.4726C25.3983 14.7491 27.4443 11.4859 27.1889 8.29006C27.07 6.80344 27.1358 5.50669 27.3916 4.45986C27.646 3.41827 28.1023 2.57208 28.8075 2.06727L28.8077 2.06712C29.988 1.22309 31.3063 1.69761 31.6396 1.83684L31.6412 1.8375C33.9118 2.79487 37.6868 6.11348 38 12.5209C38.2835 18.0782 36.0113 20.2376 35.8244 20.4033L35.8157 20.411L35.8157 20.4109C35.6423 20.5574 35.5804 20.7932 35.6573 21.0037C35.736 21.2145 35.9389 21.3564 36.1688 21.3564H54.6245C57.0791 21.3564 59.1989 23.1046 59.1989 25.3962C59.1989 27.6953 57.0817 29.454 54.6245 29.454H50.1596C49.8557 29.454 49.6153 29.6976 49.6153 29.9911C49.6153 30.2846 49.8557 30.5281 50.1596 30.5281H54.6245C57.1126 30.5281 59.1988 32.4177 59.1989 34.8174L48.1746 58.4252ZM48.1746 58.4252C50.6525 58.4252 52.7337 56.5333 52.7337 54.1358C52.7337 51.7393 50.664 49.848 48.1876 49.8374C48.1795 49.837 48.1704 49.8367 48.1607 49.8367H44.3287C44.025 49.8367 43.7843 49.5927 43.7843 49.2997C43.7843 49.0066 44.025 48.7626 44.3287 48.7626H48.1539C48.1612 48.763 48.1706 48.7633 48.1816 48.7633H51.7846C54.2736 48.7633 56.3618 46.874 56.3618 44.4753C56.3618 42.0766 54.2738 40.1866 51.7846 40.1866H48.1677C47.864 40.1866 47.6233 39.9425 47.6233 39.6495C47.6233 39.3565 47.864 39.1125 48.1677 39.1125H49.2649C49.2725 39.1125 49.2796 39.1123 49.2863 39.112C49.2881 39.1119 49.2899 39.1119 49.2917 39.1118M48.1746 58.4252L49.2917 39.1118M28.1685 1.19754C29.2537 0.420346 30.7075 0.275596 32.0681 0.848723L28.1685 1.19754ZM49.2917 39.1118H54.6252C57.114 39.1118 59.1996 37.218 59.1989 34.8175L49.2917 39.1118ZM2.8777 19.5222H2.3777V20.0222V55.4079V55.4086V55.9086H2.8777H14.6183H15.1183V55.4086V53.1368V53.1184L15.1172 53.1034C15.1172 53.1027 15.1172 53.1017 15.1172 53.1004L15.1175 53.0868L15.1181 53.064L15.1183 53.064V53.0517V22.8845H15.1184L15.1181 22.8719C15.1174 22.8411 15.1174 22.8323 15.1177 22.8266L15.1183 22.8141V22.8015V20.0222V19.5222H14.6183H2.8777Z" stroke="#764295"/>
</svg>
