<svg width="40" height="40" viewBox="0 0 40 40" fill="none" xmlns="http://www.w3.org/2000/svg">
<path d="M20 34L19.36 33.28C18.96 32.88 9.6 21.84 9.6 15.2C9.6 9.44005 14.24 4.80005 20 4.80005C25.76 4.80005 30.4 9.44005 30.4 15.2C30.4 21.84 21.04 32.8801 20.64 33.3601L20 34ZM20 6.40005C15.12 6.40005 11.2 10.32 11.2 15.2C11.2 20.32 17.92 28.9601 20 31.5201C22.08 28.9601 28.8 20.32 28.8 15.2C28.8 10.32 24.88 6.40005 20 6.40005Z" fill="#764094"/>
<path d="M20 19.2C17.76 19.2 16 17.44 16 15.2C16 12.96 17.76 11.2 20 11.2C22.24 11.2 24 12.96 24 15.2C24 17.44 22.24 19.2 20 19.2ZM20 12.8C18.64 12.8 17.6 13.84 17.6 15.2C17.6 16.56 18.64 17.6 20 17.6C21.36 17.6 22.4 16.56 22.4 15.2C22.4 13.84 21.36 12.8 20 12.8Z" fill="#764094"/>
</svg>
