<svg width="40" height="39" viewBox="0 0 40 39" fill="none" xmlns="http://www.w3.org/2000/svg">
<path d="M19.795 20.5213H17.5975V17.9699H19.6925C21.6425 17.9699 23.0625 16.7276 23.0475 15.0259C23.0475 13.3385 21.64 12.1818 19.6775 12.1818C17.7025 12.1818 16.3975 13.367 16.3075 14.6927H13.1875C13.2775 11.9866 15.5625 9.65897 19.75 9.64469C23.735 9.61613 26.2699 11.751 26.3425 14.5523C26.4 17.2583 24.13 18.7791 22.6375 19.0148V19.1814C24.395 19.348 26.9124 20.7046 26.9725 23.7438C27.0324 27.2162 23.78 29.4463 19.6475 29.4463C15.385 29.4463 12.88 27.1448 12.7625 24.3436H15.825C15.9725 25.7644 17.525 26.8664 19.6775 26.8807C22.11 26.8949 23.6775 25.5407 23.6475 23.6581C23.6325 21.8041 22.095 20.5213 19.795 20.5213Z" fill="#764295"/>
<path d="M40 19.536C40 24.5857 37.8929 29.4286 34.1421 32.9993C30.3914 36.57 25.3043 38.576 20 38.576C14.6957 38.576 9.60859 36.57 5.85786 32.9993C2.10714 29.4286 0 24.5857 0 19.536C0 14.4862 2.10714 9.64335 5.85786 6.07266C9.60859 2.50197 14.6957 0.495972 20 0.495972C25.3043 0.495972 30.3914 2.50197 34.1421 6.07266C37.8929 9.64335 40 14.4862 40 19.536ZM2.5 19.536C2.5 23.9545 4.34374 28.192 7.62563 31.3164C10.9075 34.4407 15.3587 36.196 20 36.196C24.6413 36.196 29.0925 34.4407 32.3744 31.3164C35.6563 28.192 37.5 23.9545 37.5 19.536C37.5 15.1175 35.6563 10.8799 32.3744 7.75557C29.0925 4.63122 24.6413 2.87597 20 2.87597C15.3587 2.87597 10.9075 4.63122 7.62563 7.75557C4.34374 10.8799 2.5 15.1175 2.5 19.536Z" fill="#764295"/>
</svg>
