<svg width="65" height="65" viewBox="0 0 65 65" fill="none" xmlns="http://www.w3.org/2000/svg">
<path d="M32.7633 48.4808H12.4837V18.3448L29.6995 3.29063L46.5022 17.7277V36.6489C46.5022 37.1844 46.9339 37.619 47.4673 37.619C48.0007 37.619 48.4324 37.1844 48.4324 36.6489V19.3861L54.7125 24.782C54.8946 24.9379 55.1172 25.0142 55.3392 25.0142C55.6113 25.0142 55.8822 24.8984 56.0733 24.6747C56.4201 24.2672 56.3718 23.6554 55.9665 23.3067L30.321 1.27272C29.9568 0.959687 29.4209 0.962921 29.0606 1.2779L3.95106 23.2343C3.54894 23.5862 3.50648 24.1986 3.85648 24.6029C4.20648 25.0071 4.81513 25.0491 5.21789 24.6979L10.5535 20.0322V49.4503C10.5535 49.9859 10.9852 50.4205 11.5186 50.4205H32.7633C33.2967 50.4205 33.7284 49.9859 33.7284 49.4503C33.7284 48.9148 33.2967 48.4808 32.7633 48.4808Z" fill="#764295"/>
<path d="M59.4923 58.7225L37.4312 33.542C37.7008 30.8973 37.0027 28.7578 35.3749 27.3479C33.3952 25.6333 31.5751 25.9593 28.8214 26.4508C28.4604 26.5155 28.0782 26.5841 27.6703 26.6526C26.6313 26.8279 25.755 25.7982 24.8027 24.537C24.1285 23.6439 23.5456 22.8736 22.6352 23.1142C21.7486 23.3496 21.542 24.3663 21.4179 25.3002C20.8691 29.4369 21.1316 35.1841 23.6749 37.7679C25.7556 39.8893 28.629 40.1868 30.0766 40.1868C30.2548 40.1868 30.4015 40.1817 30.5321 40.1758L55.8179 62.4168C56.601 63.1936 57.5718 63.6386 58.4842 63.6379C58.4912 63.6379 58.4989 63.6379 58.506 63.6379C59.1346 63.6334 59.7014 63.4045 60.1036 62.9931C61.1195 61.9518 60.8493 60.0814 59.4923 58.7225ZM23.3043 25.762C24.223 26.9779 25.7453 28.9454 27.9875 28.5664C28.4025 28.4972 28.7918 28.4273 29.1585 28.362C31.8858 27.8737 32.8921 27.7586 34.1145 28.8186C35.27 29.8198 35.7326 31.3675 35.5081 33.4113L30.4523 38.2362C29.5612 38.275 26.8404 38.2317 25.0479 36.4052C23.1711 34.4966 22.8301 29.5967 23.3043 25.762ZM36.3683 35.265L38.3744 37.5545L34.691 41.2559L32.2969 39.1501L36.3683 35.265ZM58.7261 61.6336C58.6862 61.6737 58.5929 61.6938 58.4848 61.697C58.1863 61.697 57.6664 61.5237 57.1311 60.9959L36.147 42.5365L39.6528 39.0136L58.0659 60.0296C58.0814 60.0471 58.0975 60.0645 58.1142 60.0807C58.7756 60.734 58.8876 61.4687 58.7261 61.6336Z" fill="#764295"/>
</svg>
