<svg width="43" height="66" viewBox="0 0 43 66" fill="none" xmlns="http://www.w3.org/2000/svg">
<g filter="url(#filter0_d_1_134)">
<path d="M23.291 34.1012V5.79595C23.291 2.60027 20.5725 0 17.2314 0C13.8877 0 11.1673 2.60027 11.1673 5.79595V34.1109C6.79682 36.2709 4 40.6158 4 45.3489C4 52.3248 9.93527 58 17.2314 58C24.5243 58 30.4583 52.3248 30.4583 45.3489C30.4583 40.5759 27.676 36.26 23.291 34.1012ZM17.2314 56.1884C10.9804 56.1884 5.89444 51.326 5.89444 45.3489C5.89444 41.1683 8.43867 37.3392 12.3835 35.5517C12.775 35.4406 13.0617 35.0976 13.0617 34.6876V5.79535C13.0617 3.59847 14.9322 1.81101 17.2314 1.81101C19.5281 1.81101 21.3966 3.59786 21.3966 5.79535C21.3966 5.79535 21.4383 34.0933 21.3796 34.2274C21.3739 34.8464 21.4105 35.1592 21.8828 35.4146C21.9517 35.4424 22.0174 35.4762 22.0856 35.5052C22.1455 35.5408 22.21 35.5686 22.2782 35.591C26.2546 37.3736 28.5639 41.1218 28.5639 45.3483C28.5639 51.326 23.4799 56.1884 17.2314 56.1884Z" fill="#764295"/>
<path d="M18.2027 39.7007V9.27647C18.2027 8.78082 17.7781 8.37964 17.2536 8.37964C16.729 8.37964 16.3044 8.78082 16.3044 9.27647V39.7007C13.3051 40.1353 10.998 42.5837 10.998 45.5385C10.998 48.7994 13.8044 51.4516 17.2536 51.4516C20.7059 51.4516 23.5142 48.7988 23.5142 45.5385C23.5135 42.5831 21.2046 40.1347 18.2027 39.7007ZM17.2536 49.6579C14.851 49.6579 12.8963 47.8099 12.8963 45.5385C12.8963 43.2671 14.851 41.419 17.2536 41.419C19.6587 41.419 21.6159 43.2671 21.6159 45.5385C21.6159 47.8099 19.6587 49.6579 17.2536 49.6579Z" fill="#764295"/>
<path d="M27.6758 23.6245H37.5065C38.0311 23.6245 38.4556 23.2233 38.4556 22.7276C38.4556 22.232 38.0311 21.8308 37.5065 21.8308H27.6758C27.1513 21.8308 26.7267 22.232 26.7267 22.7276C26.7267 23.2233 27.1513 23.6245 27.6758 23.6245Z" fill="#764295"/>
<path d="M27.6758 33.0156H32.5918C33.1164 33.0156 33.5409 32.6144 33.5409 32.1188C33.5409 31.6231 33.1164 31.2219 32.5918 31.2219H27.6758C27.1513 31.2219 26.7267 31.6231 26.7267 32.1188C26.7267 32.6144 27.1513 33.0156 27.6758 33.0156Z" fill="#764295"/>
<path d="M36.2018 27.3799H26.3711C25.8466 27.3799 25.422 27.7811 25.422 28.2767C25.422 28.7724 25.8466 29.1736 26.3711 29.1736H36.2018C36.7264 29.1736 37.151 28.7724 37.151 28.2767C37.151 27.7811 36.7264 27.3799 36.2018 27.3799Z" fill="#764295"/>
</g>
<defs>
<filter id="filter0_d_1_134" x="0" y="0" width="42.4557" height="66" filterUnits="userSpaceOnUse" color-interpolation-filters="sRGB">
<feFlood flood-opacity="0" result="BackgroundImageFix"/>
<feColorMatrix in="SourceAlpha" type="matrix" values="0 0 0 0 0 0 0 0 0 0 0 0 0 0 0 0 0 0 127 0" result="hardAlpha"/>
<feOffset dy="4"/>
<feGaussianBlur stdDeviation="2"/>
<feComposite in2="hardAlpha" operator="out"/>
<feColorMatrix type="matrix" values="0 0 0 0 0 0 0 0 0 0 0 0 0 0 0 0 0 0 0.25 0"/>
<feBlend mode="normal" in2="BackgroundImageFix" result="effect1_dropShadow_1_134"/>
<feBlend mode="normal" in="SourceGraphic" in2="effect1_dropShadow_1_134" result="shape"/>
</filter>
</defs>
</svg>
