<svg width="60" height="60" viewBox="0 0 60 60" fill="none" xmlns="http://www.w3.org/2000/svg">
<path d="M24.75 1.08434C24.75 0.48506 24.2468 0 23.625 0H1.125C0.50325 0 0 0.48506 0 1.08434V46.7624C0 53.2641 5.48775 58.5542 12.2333 58.5542H12.4988C19.254 58.5542 24.75 53.2576 24.75 46.7465V1.08434ZM2.25 15.1807H22.5V35.4217H2.25V15.1807ZM22.5 2.16867V13.012H2.25V2.16867H22.5ZM12.4995 56.3855H12.234C6.72825 56.3855 2.25 52.0684 2.25 46.7624V37.5904H22.5V46.7465C22.5 52.0619 18.0135 56.3855 12.4995 56.3855Z" fill="#764295"/>
<path d="M28.7728 45.0896C28.9918 45.2978 29.2768 45.4019 29.5625 45.4019C29.8535 45.4019 30.143 45.2942 30.3635 45.0795L53.0533 22.9069C53.4845 22.4848 53.4845 21.8067 53.0533 21.3845L37.7203 6.39969C37.2973 5.9862 36.5413 5.98692 36.1175 6.39969L28.7615 13.5888C28.325 14.0154 28.3303 14.7021 28.7728 15.1221C29.2138 15.5421 29.927 15.5378 30.3643 15.1113L36.9193 8.70499L50.6728 22.1443L28.7615 43.5556C28.325 43.9821 28.3303 44.6688 28.7728 45.0896Z" fill="#764295"/>
<path d="M58.875 36.1445H43.125C42.504 36.1445 42 36.6303 42 37.2289C42 37.8274 42.504 38.3132 43.125 38.3132H57.75V57.8313H24.375C23.7532 57.8313 23.25 58.3171 23.25 58.9156C23.25 59.5142 23.7532 60 24.375 60H58.875C59.496 60 60 59.5142 60 58.9156V37.2289C60 36.6303 59.496 36.1445 58.875 36.1445Z" fill="#764295"/>
<path d="M12.375 43.3735C10.1003 43.3735 8.25 45.1576 8.25 47.3494C8.25 49.5412 10.1003 51.3253 12.375 51.3253C14.6497 51.3253 16.5 49.5412 16.5 47.3494C16.5 45.1576 14.6497 43.3735 12.375 43.3735ZM12.375 49.1567C11.3415 49.1567 10.5 48.3463 10.5 47.3494C10.5 46.3526 11.3415 45.5422 12.375 45.5422C13.4085 45.5422 14.25 46.3526 14.25 47.3494C14.25 48.3463 13.4085 49.1567 12.375 49.1567Z" fill="#764295"/>
</svg>
